# xmcd CD database file
#
# Track frame offsets:
#	150
#	18821
#	39850
#	47589
#	72811
#	92206
#	103530
#	118611
#	133394
#	142596
#	166928
#	180070
#	203009
#	219119
#	233080
#
# Disc length: 3306 seconds
#
# Revision: 0
# Processed by: cddbd v1.5.2PL0 Copyright (c) Steve Scherf et al.
# Submitted via: CDex 1.51
#
DISCID=b30ce80f
DTITLE=Crooked Jades - World's on Fire
DYEAR=2006
DGENRE=Country
TTITLE0=Can't Stare Down a Mountaineer
TTITLE1=Sandy Boys
TTITLE2=Fork and File
TTITLE3=Goodbye Trouble the Soul of Man
TTITLE4=One Girl on the Turnpike Road
TTITLE5=Girl Slipped Down
TTITLE6=Old Cow Died
TTITLE7=Ring the Moon
TTITLE8=Shirttail Boogie
TTITLE9=Shallow Brown
TTITLE10=Heaven's Gonna Be My Home
TTITLE11=Indian War Whoop/Pancake Walk
TTITLE12=Blur
TTITLE13=Blackberry Blossom
TTITLE14=World's on Fire
EXTD=YEAR: 2006
EXTT0=
EXTT1=
EXTT2=
EXTT3=
EXTT4=
EXTT5=
EXTT6=
EXTT7=
EXTT8=
EXTT9=
EXTT10=
EXTT11=
EXTT12=
EXTT13=
EXTT14=
PLAYORDER=
